<svg width="15" height="21" viewBox="0 0 15 21" fill="none" xmlns="http://www.w3.org/2000/svg">
<path d="M0.546875 4.25C0.546875 2.17969 2.1875 0.5 4.25781 0.5H10.7031C12.7734 0.5 14.4141 2.17969 14.4141 4.25C14.4141 5.57812 13.75 6.71094 12.7344 7.375C13.75 8.07812 14.4141 9.21094 14.4141 10.5391C14.4141 12.5703 12.7734 14.25 10.7031 14.25H10.625C9.64844 14.25 8.75 13.8984 8.08594 13.2734V16.75C8.08594 18.8203 6.36719 20.5 4.29688 20.5C2.22656 20.5 0.546875 18.8594 0.546875 16.7891C0.546875 15.4609 1.21094 14.3281 2.22656 13.6641C1.21094 12.9609 0.546875 11.8281 0.546875 10.5391C0.546875 9.21094 1.21094 8.07812 2.22656 7.375C1.21094 6.71094 0.546875 5.57812 0.546875 4.25ZM6.875 8H4.25781C2.89062 8 1.75781 9.13281 1.75781 10.5391C1.75781 11.9062 2.85156 13.0391 4.25781 13.0391H6.875V8ZM8.08594 10.5391C8.08594 11.9062 9.21875 13.0391 10.625 13.0391H10.7031C12.0703 13.0391 13.2031 11.9062 13.2031 10.5391C13.2031 9.13281 12.0703 8 10.7031 8H10.625C9.21875 8 8.08594 9.13281 8.08594 10.5391ZM4.25781 14.25C2.85156 14.2891 1.75781 15.3828 1.75781 16.7891C1.75781 18.1562 2.89062 19.2891 4.29688 19.2891C5.70312 19.2891 6.875 18.1562 6.875 16.75V14.25H4.25781ZM4.25781 1.75C2.89062 1.75 1.75781 2.88281 1.75781 4.25C1.75781 5.65625 2.89062 6.78906 4.25781 6.78906H6.875V1.75H4.25781ZM8.08594 6.78906H10.7031C12.0703 6.78906 13.2031 5.65625 13.2031 4.25C13.2031 2.88281 12.0703 1.75 10.7031 1.75H8.08594V6.78906Z" fill="#E84A4A"/>
</svg>
