<svg width="20" height="17" viewBox="0 0 20 17" fill="none" xmlns="http://www.w3.org/2000/svg">
<path d="M8.4375 4.71094H5.35156C3.78906 4.28125 0.234375 4.39844 0.234375 7.64062C0.234375 8.8125 0.820312 9.63281 1.60156 10.0234C0.625 10.9219 0.15625 11.3516 0.15625 11.9375C0.15625 12.3672 0.3125 12.7578 0.859375 12.9922C0.3125 13.5 0 13.8906 0 14.5938C0 15.8438 1.09375 16.5859 3.94531 16.5859C6.71875 16.5859 8.32031 15.5703 8.32031 13.7344C8.32031 11.4297 6.5625 11.5078 2.38281 11.2734L2.92969 10.4141C3.98438 10.7266 7.53906 10.8047 7.53906 7.75781C7.53906 7.05469 7.26562 6.54688 6.95312 6.15625L8.4375 6.03906V4.71094ZM5.9375 14.1641C5.9375 15.4141 1.83594 15.4141 1.83594 14.2422C1.83594 13.9297 2.07031 13.6562 2.26562 13.4219C5.3125 13.6172 5.9375 13.5391 5.9375 14.1641ZM3.98438 8.89062C1.91406 8.89062 1.99219 6.11719 4.02344 6.11719C5.9375 6.11719 6.01562 8.89062 3.98438 8.89062ZM9.17969 12.8359V11.5859C10.2344 11.4297 10.2344 11.5078 10.2344 11.1562V6.46875C10.2344 6.15625 10.1562 6.19531 9.17969 5.84375L9.33594 4.55469H12.6562V11.1562C12.6562 11.3906 12.6562 11.4297 12.8906 11.4688L13.7109 11.5859V12.8359H9.17969ZM11.2109 3.26562C10.3125 3.26562 9.80469 2.75781 9.80469 1.85938C9.80469 0.960938 10.3125 0.453125 11.2109 0.453125C12.1484 0.453125 12.6562 0.960938 12.6562 1.85938C12.6562 2.75781 12.1484 3.26562 11.2109 3.26562ZM20 12.2109C19.2969 12.5234 18.2812 12.8359 17.3828 12.8359C15.5078 12.8359 14.8047 12.0938 14.8047 10.2969V6.11719C14.8047 5.92188 14.8438 5.96094 13.5547 5.96094V4.55469C14.9609 4.39844 15.5078 3.69531 15.6641 1.97656H17.1875C17.1875 4.55469 17.1484 4.39844 17.3047 4.39844H19.5703V5.96094H17.1875V9.75C17.1875 10.0234 16.9922 11.7812 19.5703 10.8047L20 12.2109Z" fill="#E84A4A"/>
</svg>
