<svg width="18" height="19" viewBox="0 0 18 19" fill="none" xmlns="http://www.w3.org/2000/svg">
<path d="M0.25 0.75V18.25H17.75V0.75H0.25ZM9.74219 14.4219C9.74219 16.1016 8.76562 16.8828 7.28125 16.8828C5.99219 16.8828 5.21094 16.2188 4.82031 15.3984L6.1875 14.5781C6.42188 15.0469 6.65625 15.4375 7.24219 15.4375C7.75 15.4375 8.10156 15.2031 8.10156 14.3828V8.79688H9.74219V14.4219ZM13.6484 16.8828C12.125 16.8828 11.1484 16.1797 10.6406 15.2031L12.0078 14.4609C12.3594 15.0078 12.7891 15.4375 13.6094 15.4375C14.2734 15.4375 14.7422 15.0859 14.7422 14.6172C14.7422 14.0703 14.2734 13.875 13.5312 13.5234L13.1016 13.3672C11.9297 12.8594 11.1484 12.2344 11.1484 10.8672C11.1484 9.65625 12.0859 8.71875 13.5703 8.71875C14.5859 8.71875 15.3672 9.07031 15.875 10.0078L14.625 10.8281C14.3125 10.3594 14.0391 10.125 13.5312 10.125C13.0625 10.125 12.75 10.4375 12.75 10.8281C12.75 11.3359 13.0625 11.5312 13.7656 11.8438L14.1953 12.0391C15.6016 12.625 16.3828 13.25 16.3828 14.6172C16.3828 16.1016 15.2109 16.8828 13.6484 16.8828Z" fill="#E84A4A"/>
</svg>
