<svg width="18" height="21" viewBox="0 0 18 21" fill="none" xmlns="http://www.w3.org/2000/svg">
<path d="M9 20.3438C8.72656 20.3438 8.45312 20.3047 8.21875 20.1484L5.79688 18.7422C5.44531 18.5469 5.64062 18.4688 5.75781 18.4297C6.22656 18.2344 6.34375 18.2344 6.85156 17.9219C6.89062 17.8828 6.96875 17.9219 7.00781 17.9219L8.88281 19.0547C8.92188 19.0938 9.03906 19.0938 9.07812 19.0547L16.3047 14.875C16.3828 14.8359 16.4219 14.7578 16.4219 14.6797V6.35938C16.4219 6.28125 16.3828 6.20312 16.3047 6.16406L9.07812 1.98438C9.03906 1.94531 8.92188 1.94531 8.88281 1.98438L1.65625 6.16406C1.57812 6.20312 1.53906 6.28125 1.53906 6.35938V14.6797C1.53906 14.7578 1.57812 14.8359 1.65625 14.875L3.64844 16.0078C4.70312 16.5547 5.36719 15.9297 5.36719 15.2656V7.0625C5.36719 6.94531 5.44531 6.86719 5.5625 6.86719H6.5C6.61719 6.86719 6.69531 6.94531 6.69531 7.0625V15.2656C6.69531 16.7109 5.91406 17.5312 4.58594 17.5312C4.15625 17.5312 3.80469 17.5312 2.90625 17.0625L1.03125 16.0078C0.5625 15.7344 0.25 15.2266 0.25 14.6797V6.35938C0.25 5.8125 0.5625 5.30469 1.03125 5.03125L8.21875 0.851562C8.6875 0.617188 9.27344 0.617188 9.74219 0.851562L16.9688 5.03125C17.4375 5.30469 17.7109 5.8125 17.7109 6.35938V14.6797C17.7109 15.2266 17.4375 15.7344 16.9688 16.0078L9.74219 20.1484C9.50781 20.3047 9.23438 20.3438 9 20.3438ZM14.8203 12.1406C14.8203 10.5781 13.7656 10.1875 11.5391 9.875C9.3125 9.60156 9.07812 9.44531 9.07812 8.89844C9.07812 8.46875 9.27344 7.92188 10.9141 7.92188C12.3984 7.92188 12.9453 8.23438 13.1797 9.21094C13.1797 9.32812 13.2969 9.40625 13.375 9.40625H14.3125C14.3906 9.40625 14.4297 9.36719 14.4688 9.32812C14.5078 9.28906 14.5078 9.21094 14.5078 9.17188C14.3906 7.45312 13.2188 6.63281 10.9141 6.63281C8.84375 6.63281 7.63281 7.49219 7.63281 8.97656C7.63281 10.5391 8.84375 10.9688 10.8359 11.1641C13.1797 11.3984 13.375 11.75 13.375 12.2188C13.375 13.0391 12.7109 13.3516 11.2266 13.3516C9.3125 13.3516 8.88281 12.8828 8.72656 11.9453C8.72656 11.8281 8.64844 11.75 8.53125 11.75H7.59375C7.47656 11.75 7.39844 11.8672 7.39844 11.9844C7.39844 13.1953 8.0625 14.6406 11.2266 14.6406C13.4922 14.6406 14.8203 13.7422 14.8203 12.1406Z" fill="#E84A4A"/>
</svg>
